<?xml version="1.0" encoding="UTF-8" standalone="no"?>
<!DOCTYPE svg PUBLIC "-//W3C//DTD SVG 1.1//EN"
 "http://www.w3.org/Graphics/SVG/1.1/DTD/svg11.dtd">
<!-- Generated by graphviz version 2.43.0 (0)
 -->
<!-- Title: %3 Pages: 1 -->
<svg width="282pt" height="479pt"
 viewBox="0.00 0.00 282.00 479.00" xmlns="http://www.w3.org/2000/svg" xmlns:xlink="http://www.w3.org/1999/xlink">
<g id="graph0" class="graph" transform="scale(1 1) rotate(0) translate(4 475)">
<title>%3</title>
<polygon fill="white" stroke="transparent" points="-4,4 -4,-475 278,-475 278,4 -4,4"/>
<!-- input -->
<g id="node1" class="node">
<title>input</title>
<path fill="none" stroke="black" d="M186,-471C186,-471 88,-471 88,-471 82,-471 76,-465 76,-459 76,-459 76,-447 76,-447 76,-441 82,-435 88,-435 88,-435 186,-435 186,-435 192,-435 198,-441 198,-447 198,-447 198,-459 198,-459 198,-465 192,-471 186,-471"/>
<text text-anchor="middle" x="137" y="-449.3" font-family="Times,serif" font-size="14.00">Input Matrix X</text>
</g>
<!-- projections -->
<g id="node2" class="node">
<title>projections</title>
<path fill="none" stroke="black" d="M262,-384C262,-384 12,-384 12,-384 6,-384 0,-378 0,-372 0,-372 0,-360 0,-360 0,-354 6,-348 12,-348 12,-348 262,-348 262,-348 268,-348 274,-354 274,-360 274,-360 274,-372 274,-372 274,-378 268,-384 262,-384"/>
<text text-anchor="middle" x="137" y="-362.3" font-family="Times,serif" font-size="14.00">Linear Projections (W_Q, W_K, W_V)</text>
</g>
<!-- input&#45;&gt;projections -->
<g id="edge1" class="edge">
<title>input&#45;&gt;projections</title>
<path fill="none" stroke="black" d="M137,-434.97C137,-434.97 137,-394 137,-394"/>
<polygon fill="black" stroke="black" points="140.5,-394 137,-384 133.5,-394 140.5,-394"/>
<text text-anchor="middle" x="181" y="-405.8" font-family="Times,serif" font-size="14.00">embeddings</text>
</g>
<!-- qkv -->
<g id="node3" class="node">
<title>qkv</title>
<path fill="none" stroke="black" d="M248.5,-297C248.5,-297 25.5,-297 25.5,-297 19.5,-297 13.5,-291 13.5,-285 13.5,-285 13.5,-273 13.5,-273 13.5,-267 19.5,-261 25.5,-261 25.5,-261 248.5,-261 248.5,-261 254.5,-261 260.5,-267 260.5,-273 260.5,-273 260.5,-285 260.5,-285 260.5,-291 254.5,-297 248.5,-297"/>
<text text-anchor="middle" x="137" y="-275.3" font-family="Times,serif" font-size="14.00">Queries (Q), Keys (K), Values (V)</text>
</g>
<!-- projections&#45;&gt;qkv -->
<g id="edge2" class="edge">
<title>projections&#45;&gt;qkv</title>
<path fill="none" stroke="black" d="M137,-347.97C137,-347.97 137,-307 137,-307"/>
<polygon fill="black" stroke="black" points="140.5,-307 137,-297 133.5,-307 140.5,-307"/>
<text text-anchor="middle" x="162.5" y="-318.8" font-family="Times,serif" font-size="14.00">project</text>
</g>
<!-- matmul -->
<g id="node4" class="node">
<title>matmul</title>
<path fill="none" stroke="black" d="M231,-210C231,-210 43,-210 43,-210 37,-210 31,-204 31,-198 31,-198 31,-186 31,-186 31,-180 37,-174 43,-174 43,-174 231,-174 231,-174 237,-174 243,-180 243,-186 243,-186 243,-198 243,-198 243,-204 237,-210 231,-210"/>
<text text-anchor="middle" x="137" y="-188.3" font-family="Times,serif" font-size="14.00">MatMul(Q, K^T) / sqrt(d_k)</text>
</g>
<!-- qkv&#45;&gt;matmul -->
<g id="edge3" class="edge">
<title>qkv&#45;&gt;matmul</title>
<path fill="none" stroke="black" d="M137,-260.97C137,-260.97 137,-220 137,-220"/>
<polygon fill="black" stroke="black" points="140.5,-220 137,-210 133.5,-220 140.5,-220"/>
<text text-anchor="middle" x="179" y="-231.8" font-family="Times,serif" font-size="14.00">dot&#45;product</text>
</g>
<!-- softmax -->
<g id="node5" class="node">
<title>softmax</title>
<path fill="none" stroke="black" d="M196.5,-123C196.5,-123 77.5,-123 77.5,-123 71.5,-123 65.5,-117 65.5,-111 65.5,-111 65.5,-99 65.5,-99 65.5,-93 71.5,-87 77.5,-87 77.5,-87 196.5,-87 196.5,-87 202.5,-87 208.5,-93 208.5,-99 208.5,-99 208.5,-111 208.5,-111 208.5,-117 202.5,-123 196.5,-123"/>
<text text-anchor="middle" x="137" y="-101.3" font-family="Times,serif" font-size="14.00">Softmax Function</text>
</g>
<!-- matmul&#45;&gt;softmax -->
<g id="edge4" class="edge">
<title>matmul&#45;&gt;softmax</title>
<path fill="none" stroke="black" d="M137,-173.97C137,-173.97 137,-133 137,-133"/>
<polygon fill="black" stroke="black" points="140.5,-133 137,-123 133.5,-133 140.5,-133"/>
<text text-anchor="middle" x="185" y="-144.8" font-family="Times,serif" font-size="14.00">scale &amp; mask</text>
</g>
<!-- output -->
<g id="node6" class="node">
<title>output</title>
<path fill="none" stroke="black" d="M252.5,-36C252.5,-36 21.5,-36 21.5,-36 15.5,-36 9.5,-30 9.5,-24 9.5,-24 9.5,-12 9.5,-12 9.5,-6 15.5,0 21.5,0 21.5,0 252.5,0 252.5,0 258.5,0 264.5,-6 264.5,-12 264.5,-12 264.5,-24 264.5,-24 264.5,-30 258.5,-36 252.5,-36"/>
<text text-anchor="middle" x="137" y="-14.3" font-family="Times,serif" font-size="14.00">Final Output MatMul(Weights, V)</text>
</g>
<!-- softmax&#45;&gt;output -->
<g id="edge5" class="edge">
<title>softmax&#45;&gt;output</title>
<path fill="none" stroke="black" d="M137,-86.97C137,-86.97 137,-46 137,-46"/>
<polygon fill="black" stroke="black" points="140.5,-46 137,-36 133.5,-46 140.5,-46"/>
<text text-anchor="middle" x="200.5" y="-57.8" font-family="Times,serif" font-size="14.00">attention weights</text>
</g>
</g>
</svg>
